<svg width="39" height="48" viewBox="0 0 39 48" fill="none" xmlns="http://www.w3.org/2000/svg">
<g id="document-application-icon 1" clip-path="url(#clip0_4_15)">
<g id="Group">
<path id="Vector" d="M0.446276 47.6602C0.185318 47.5352 0 47.2656 0 46.9453V0.78125C0 0.351562 0.336598 0 0.7564 0H8.09348H38.2436C38.6596 0 39 0.347656 39 0.78125V42.8633C39 42.9062 38.9962 42.9453 38.9924 42.9844C38.8865 44.5195 38.4024 45.7148 37.5326 46.5703C36.6627 47.4219 35.4411 47.8984 33.8565 47.9922C33.8224 47.9961 33.7922 48 33.7581 48H1.07031C0.81313 48 0.582428 47.8633 0.446276 47.6602ZM37.491 42.8438V1.55859H8.09348H1.50902V46.4414H33.7544H33.7695C34.9835 46.3711 35.8912 46.0352 36.4925 45.4453C37.0863 44.8633 37.4153 43.9922 37.491 42.8438ZM17.1173 14.8906L18.4335 18.8906L19.0953 16.5156L18.7701 16.1484C18.6226 15.9297 18.5923 15.7344 18.6717 15.5703C18.8457 15.2109 19.2126 15.2773 19.5529 15.2773C19.9085 15.2773 20.3472 15.207 20.4606 15.668C20.4984 15.8203 20.4493 15.9844 20.3472 16.1484L20.0219 16.5156L20.6838 18.8906L21.8751 14.8906C22.7374 15.6914 25.2827 15.8516 26.2282 16.3945C26.527 16.5664 26.7993 16.7852 27.0148 17.082C27.688 18 27.6843 18.1641 27.8015 19.3164C27.7523 19.8438 27.4611 20.1484 26.89 20.1953H12.0986C11.5275 20.1484 11.2363 19.8477 11.1872 19.3164C11.3006 18.1641 11.3006 18 11.9738 17.082C12.1932 16.7852 12.4617 16.5664 12.7605 16.3945C13.7135 15.8516 16.2588 15.6875 17.1173 14.8906ZM16.4101 9.14453C16.5349 9.19531 16.6673 9.20703 16.7997 9.17969L16.6143 7.64453C16.7089 7.26562 16.8564 6.96875 17.053 6.75391C17.2573 6.52734 17.5107 6.38672 17.817 6.32813C18.2217 6.29688 18.3427 6.60156 18.7436 6.86719C19.969 7.67578 21.009 7.94922 22.5256 7.96875L22.2798 9.25391C22.3441 9.25781 22.4121 9.25781 22.4764 9.25C22.4953 9.25391 22.5143 9.25391 22.5332 9.25391C22.813 9.22656 22.9832 9.25781 23.0324 9.36328C23.0967 9.49609 23.0437 9.75781 22.8698 10.1758L22.0377 11.5898C21.7276 12.1172 21.4137 12.6445 21.0166 13.0312C20.6308 13.4062 20.1543 13.6523 19.5038 13.6523C18.9024 13.6523 18.4486 13.4102 18.0742 13.0586C17.6846 12.6914 17.3745 12.1953 17.0795 11.7109L16.342 10.5L16.3382 10.4961C16.1075 10.1445 15.9903 9.83594 15.9827 9.59766C15.979 9.51562 15.9941 9.44141 16.0206 9.37891C16.047 9.32422 16.0849 9.27734 16.1378 9.23828C16.2021 9.19141 16.2966 9.16016 16.4101 9.14453ZM23.0324 8.92188L23.0778 6.91797C23.021 6.11719 22.7676 5.51172 22.3554 5.05469C21.3532 3.93359 19.4773 3.64453 18.0628 4.17188C17.8246 4.26172 17.5977 4.375 17.3934 4.50781C16.811 4.89062 16.3382 5.44922 16.1491 6.14453C16.1038 6.30859 16.0735 6.47266 16.0584 6.63672C16.0281 7.33984 16.047 8.17969 16.0962 8.83984C16.0357 8.86328 15.9827 8.89453 15.9298 8.92578C15.8201 9 15.7407 9.10156 15.6877 9.21875C15.6386 9.33203 15.6159 9.46094 15.6197 9.60156C15.6272 9.90625 15.7672 10.2812 16.0319 10.6914L16.7694 11.8984C17.0795 12.4062 17.401 12.9219 17.8246 13.3203C18.2595 13.7305 18.7928 14.0117 19.4962 14.0117C20.2526 14.0156 20.8048 13.7266 21.2548 13.2891C21.6898 12.8672 22.0188 12.3203 22.3403 11.7695L23.1799 10.3438C23.1837 10.3359 23.1875 10.3281 23.1912 10.3242C23.4182 9.79688 23.4673 9.42969 23.3501 9.19141C23.2858 9.0625 23.1799 8.97266 23.0324 8.92188ZM26.6518 42.2578C26.2395 42.2578 25.9029 41.9102 25.9029 41.4766C25.9029 41.0469 26.2357 40.6953 26.6518 40.6953H32.9601C33.3724 40.6953 33.709 41.043 33.709 41.4766C33.709 41.9062 33.3762 42.2578 32.9601 42.2578H26.6518ZM6.36133 36.5703C5.94909 36.5703 5.61249 36.2227 5.61249 35.7891C5.61249 35.3594 5.94531 35.0078 6.36133 35.0078H33.0244C33.4367 35.0078 33.7733 35.3555 33.7733 35.7891C33.7733 36.2188 33.4405 36.5703 33.0244 36.5703H6.36133ZM6.48235 30.8828C6.07011 30.8828 5.73351 30.5352 5.73351 30.1016C5.73351 29.6719 6.06633 29.3203 6.48235 29.3203H32.9564C33.3686 29.3203 33.7052 29.668 33.7052 30.1016C33.7052 30.5312 33.3724 30.8828 32.9564 30.8828H6.48235ZM6.36133 25.1953C5.94909 25.1953 5.61249 24.8477 5.61249 24.4141C5.61249 23.9844 5.94531 23.6328 6.36133 23.6328H17.7565C18.1687 23.6328 18.5053 23.9805 18.5053 24.4141C18.5053 24.8438 18.1725 25.1953 17.7565 25.1953H6.36133ZM20.6649 25.1953C20.2526 25.1953 19.916 24.8477 19.916 24.4141C19.916 23.9844 20.2488 23.6328 20.6649 23.6328H32.9564C33.3686 23.6328 33.7052 23.9805 33.7052 24.4141C33.7052 24.8438 33.3724 25.1953 32.9564 25.1953H20.6649Z" fill="#324F87"/>
</g>
</g>
<defs>
<clipPath id="clip0_4_15">
<rect width="39" height="48" fill="white"/>
</clipPath>
</defs>
</svg>
