<svg width="25" height="25" viewBox="0 0 25 25" fill="none" xmlns="http://www.w3.org/2000/svg">
<path d="M22.3864 5.46875H12.9395V3.04736C12.9396 2.8459 12.9001 2.64637 12.8231 2.4602C12.7461 2.27404 12.6331 2.10489 12.4906 1.96243C12.3482 1.81998 12.179 1.70702 11.9928 1.63001C11.8067 1.55301 11.6071 1.51348 11.4057 1.51367H3.04725C2.8458 1.5135 2.64629 1.55305 2.46014 1.63006C2.274 1.70708 2.10486 1.82005 1.96242 1.9625C1.81998 2.10495 1.70702 2.27409 1.63002 2.46025C1.55302 2.6464 1.51348 2.84591 1.51367 3.04736V21.9526C1.51403 22.3593 1.67572 22.7491 1.96324 23.0367C2.25076 23.3242 2.64062 23.4859 3.04725 23.4863H11.4057C11.8123 23.486 12.2022 23.3243 12.4898 23.0367C12.7774 22.7492 12.9391 22.3593 12.9395 21.9526V14.2578H22.3866C22.6782 14.2578 22.958 14.1419 23.1642 13.9357C23.3705 13.7295 23.4863 13.4497 23.4863 13.1581V6.56865C23.4863 6.42421 23.4579 6.28118 23.4026 6.14773C23.3473 6.01429 23.2663 5.89303 23.1642 5.7909C23.062 5.68876 22.9408 5.60775 22.8073 5.55247C22.6739 5.4972 22.5309 5.46875 22.3864 5.46875ZM6.12793 2.44531H8.3252C8.47088 2.44531 8.6106 2.50319 8.71362 2.6062C8.81664 2.70922 8.87451 2.84894 8.87451 2.99463C8.87451 3.14032 8.81664 3.28004 8.71362 3.38305C8.6106 3.48607 8.47088 3.54395 8.3252 3.54395H6.12793C5.98224 3.54395 5.84252 3.48607 5.73951 3.38305C5.63649 3.28004 5.57861 3.14032 5.57861 2.99463C5.57861 2.84894 5.63649 2.70922 5.73951 2.6062C5.84252 2.50319 5.98224 2.44531 6.12793 2.44531ZM8.32498 22.551H6.12772C5.98203 22.551 5.84231 22.4932 5.73929 22.3901C5.63627 22.2871 5.5784 22.1474 5.5784 22.0017C5.5784 21.856 5.63627 21.7163 5.73929 21.6133C5.84231 21.5103 5.98203 21.4524 6.12772 21.4524H8.32498C8.47067 21.4524 8.61039 21.5103 8.71341 21.6133C8.81642 21.7163 8.8743 21.856 8.8743 22.0017C8.8743 22.1474 8.81642 22.2871 8.71341 22.3901C8.61039 22.4932 8.47067 22.551 8.32498 22.551ZM11.9726 20.52H2.48034V4.47998H11.9726V5.46875H6.11889C5.82991 5.46875 5.55277 5.58355 5.34843 5.78788C5.14409 5.99222 5.0293 6.26937 5.0293 6.55834V13.1672C5.0293 13.3104 5.05751 13.4522 5.11231 13.5846C5.16712 13.7169 5.24746 13.8371 5.34873 13.9384C5.45 14.0397 5.57023 14.12 5.70255 14.1748C5.83487 14.2296 5.9767 14.2578 6.11992 14.2578H8.10547V16.0229C8.10547 16.1303 8.13732 16.2353 8.197 16.3246C8.25667 16.4139 8.34149 16.4835 8.44072 16.5246C8.53996 16.5657 8.64915 16.5765 8.7545 16.5555C8.85984 16.5346 8.95661 16.4828 9.03256 16.4069L11.1816 14.2578H11.9726V20.52ZM10.7817 10.2632C10.9077 10.3364 10.9997 10.4565 11.0376 10.5973C11.0755 10.738 11.0561 10.8881 10.9838 11.0146C10.9481 11.0776 10.9002 11.1328 10.8429 11.1771C10.7857 11.2215 10.7202 11.254 10.6503 11.2728C10.5804 11.2916 10.5075 11.2963 10.4357 11.2867C10.364 11.2771 10.2948 11.2533 10.2323 11.2168L9.53369 10.8125V11.6211C9.53369 11.7668 9.47582 11.9065 9.3728 12.0095C9.26978 12.1125 9.13006 12.1704 8.98438 12.1704C8.83869 12.1704 8.69897 12.1125 8.59595 12.0095C8.49293 11.9065 8.43506 11.7668 8.43506 11.6211V10.8125L7.73618 11.2168C7.67369 11.2533 7.60456 11.2771 7.53281 11.2867C7.46106 11.2963 7.38811 11.2916 7.31821 11.2728C7.2483 11.254 7.18282 11.2215 7.12558 11.1771C7.06833 11.1328 7.02045 11.0776 6.98472 11.0146C6.91249 10.8881 6.89321 10.738 6.93107 10.5973C6.96893 10.4565 7.06087 10.3365 7.18687 10.2632L7.88574 9.86328L7.18687 9.45898C7.06041 9.38614 6.96808 9.26605 6.93017 9.12512C6.89226 8.9842 6.91189 8.83399 6.98473 8.70754C7.05758 8.58108 7.17767 8.48875 7.3186 8.45084C7.45952 8.41293 7.60973 8.43256 7.73618 8.50541L8.43506 8.90967V8.10547C8.43506 7.95978 8.49293 7.82006 8.59595 7.71704C8.69897 7.61403 8.83869 7.55615 8.98438 7.55615C9.13006 7.55615 9.26978 7.61403 9.3728 7.71704C9.47582 7.82006 9.53369 7.95978 9.53369 8.10547V8.90967L10.2324 8.50541C10.3588 8.43256 10.509 8.41293 10.6499 8.45084C10.7909 8.48875 10.911 8.58108 10.9838 8.70754C11.0566 8.83399 11.0763 8.9842 11.0384 9.12512C11.0005 9.26605 10.9081 9.38614 10.7817 9.45898L10.083 9.86328L10.7817 10.2632ZM16.0551 10.2632C16.1812 10.3364 16.2732 10.4565 16.311 10.5973C16.3489 10.738 16.3296 10.8881 16.2572 11.0146C16.2215 11.0776 16.1736 11.1328 16.1164 11.1771C16.0591 11.2215 15.9937 11.254 15.9237 11.2728C15.8538 11.2916 15.7809 11.2963 15.7091 11.2867C15.6374 11.2771 15.5683 11.2533 15.5058 11.2168L14.8071 10.8125V11.6211C14.8071 11.7668 14.7493 11.9065 14.6462 12.0095C14.5432 12.1125 14.4035 12.1704 14.2578 12.1704C14.1121 12.1704 13.9724 12.1125 13.8694 12.0095C13.7664 11.9065 13.7085 11.7668 13.7085 11.6211V10.8125L13.0096 11.2168C12.9471 11.2533 12.878 11.2771 12.8062 11.2867C12.7345 11.2963 12.6615 11.2916 12.5916 11.2728C12.5217 11.254 12.4563 11.2215 12.399 11.1771C12.3418 11.1328 12.2939 11.0776 12.2582 11.0146C12.1859 10.8881 12.1666 10.738 12.2045 10.5973C12.2424 10.4565 12.3343 10.3365 12.4603 10.2632L13.1592 9.86328L12.4603 9.45898C12.3339 9.38614 12.2415 9.26605 12.2036 9.12512C12.1657 8.9842 12.1853 8.83399 12.2582 8.70754C12.331 8.58108 12.4511 8.48875 12.592 8.45084C12.733 8.41293 12.8832 8.43256 13.0096 8.50541L13.7085 8.90967V8.10547C13.7085 7.95978 13.7664 7.82006 13.8694 7.71704C13.9724 7.61403 14.1121 7.55615 14.2578 7.55615C14.4035 7.55615 14.5432 7.61403 14.6462 7.71704C14.7493 7.82006 14.8071 7.95978 14.8071 8.10547V8.90967L15.5058 8.50541C15.6322 8.43256 15.7825 8.41293 15.9234 8.45084C16.0643 8.48875 16.1844 8.58108 16.2572 8.70754C16.3301 8.83399 16.3497 8.9842 16.3118 9.12512C16.2739 9.26605 16.1816 9.38614 16.0551 9.45898L15.3564 9.86328L16.0551 10.2632ZM21.3285 10.2632C21.4546 10.3364 21.5466 10.4565 21.5845 10.5973C21.6223 10.738 21.603 10.8881 21.5307 11.0146C21.4949 11.0776 21.4471 11.1328 21.3898 11.1771C21.3326 11.2215 21.2671 11.254 21.1972 11.2728C21.1273 11.2916 21.0543 11.2963 20.9826 11.2867C20.9108 11.2771 20.8417 11.2533 20.7792 11.2168L20.0806 10.8125V11.6211C20.0806 11.7668 20.0227 11.9065 19.9197 12.0095C19.8167 12.1125 19.6769 12.1704 19.5312 12.1704C19.3856 12.1704 19.2458 12.1125 19.1428 12.0095C19.0398 11.9065 18.9819 11.7668 18.9819 11.6211V10.8125L18.2831 11.2168C18.2206 11.2533 18.1514 11.2771 18.0797 11.2867C18.0079 11.2963 17.935 11.2916 17.8651 11.2728C17.7952 11.254 17.7297 11.2215 17.6725 11.1771C17.6152 11.1328 17.5673 11.0776 17.5316 11.0146C17.4594 10.8881 17.4401 10.738 17.4779 10.5973C17.5158 10.4565 17.6077 10.3365 17.7337 10.2632L18.4326 9.86328L17.7337 9.45898C17.6073 9.38614 17.515 9.26605 17.477 9.12512C17.4391 8.9842 17.4588 8.83399 17.5316 8.70754C17.6045 8.58108 17.7245 8.48875 17.8655 8.45084C18.0064 8.41293 18.1566 8.43256 18.2831 8.50541L18.9819 8.90967V8.10547C18.9819 7.95978 19.0398 7.82006 19.1428 7.71704C19.2458 7.61403 19.3856 7.55615 19.5312 7.55615C19.6769 7.55615 19.8167 7.61403 19.9197 7.71704C20.0227 7.82006 20.0806 7.95978 20.0806 8.10547V8.90967L20.7792 8.50541C20.8418 8.46934 20.9109 8.44595 20.9826 8.43659C21.0542 8.42723 21.127 8.43207 21.1968 8.45084C21.2666 8.46961 21.332 8.50194 21.3893 8.54598C21.4466 8.59003 21.4946 8.64492 21.5307 8.70754C21.5667 8.77015 21.5901 8.83925 21.5995 8.9109C21.6089 8.98255 21.604 9.05534 21.5852 9.12512C21.5665 9.1949 21.5341 9.2603 21.4901 9.31758C21.4461 9.37487 21.3912 9.42292 21.3285 9.45898L20.6299 9.86328L21.3285 10.2632Z" fill="white" stroke="white" stroke-width="0.125"/>
</svg>
