<svg width="25" height="25" viewBox="0 0 25 25" fill="none" xmlns="http://www.w3.org/2000/svg">
<path d="M22.6501 5.41066H2.35062C1.93365 5.41066 1.59401 5.7503 1.59401 6.16657V18.8335C1.59401 19.2505 1.93365 19.5893 2.35062 19.5893H22.6501C23.0672 19.5893 23.406 19.2505 23.406 18.8335V6.16657C23.406 5.7503 23.0672 5.41066 22.6501 5.41066ZM11.9534 16.2086C12.0997 16.355 12.2943 16.4359 12.5 16.4359C12.5704 16.4359 12.6393 16.4262 12.7056 16.408C12.8375 16.3751 12.9617 16.3088 13.0621 16.2087L16.145 13.1111L16.1625 13.0935L21.9612 18.7694L3.02282 18.7868L8.83822 13.0935L11.9534 16.2086ZM12.5 15.7204L2.95241 6.17289L22.0664 6.1555L12.5 15.7204ZM8.35757 12.6128L2.28854 18.5722V6.54376L8.35757 12.6128ZM16.6432 12.6128L22.7122 6.54376V18.5715L16.6432 12.6128Z" fill="white"/>
</svg>
