<svg width="25" height="25" viewBox="0 0 25 25" fill="none" xmlns="http://www.w3.org/2000/svg">
<path d="M6.25 25H18.75C19.3961 25 19.9219 24.4742 19.9219 23.8281V1.17188C19.9219 0.525781 19.3961 0 18.75 0H6.25C5.60391 0 5.07812 0.525781 5.07812 1.17188V23.8281C5.07812 24.4742 5.60391 25 6.25 25ZM5.85938 1.17188C5.85938 1.06827 5.90053 0.968918 5.97379 0.895661C6.04704 0.822405 6.1464 0.78125 6.25 0.78125H18.75C18.8536 0.78125 18.953 0.822405 19.0262 0.895661C19.0995 0.968918 19.1406 1.06827 19.1406 1.17188V23.8281C19.1406 23.9317 19.0995 24.0311 19.0262 24.1043C18.953 24.1776 18.8536 24.2188 18.75 24.2188H6.25C6.1464 24.2188 6.04704 24.1776 5.97379 24.1043C5.90053 24.0311 5.85938 23.9317 5.85938 23.8281V1.17188Z" fill="white"/>
<path d="M7.03125 21.0938H17.9688C18.0724 21.0938 18.1717 21.0526 18.245 20.9793C18.3182 20.9061 18.3594 20.8067 18.3594 20.7031V4.29688C18.3594 4.19327 18.3182 4.09392 18.245 4.02066C18.1717 3.94741 18.0724 3.90625 17.9688 3.90625H7.03125C6.92765 3.90625 6.82829 3.94741 6.75504 4.02066C6.68178 4.09392 6.64062 4.19327 6.64062 4.29688V20.7031C6.64062 20.8067 6.68178 20.9061 6.75504 20.9793C6.82829 21.0526 6.92765 21.0938 7.03125 21.0938ZM7.42188 4.6875H17.5781V20.3125H7.42188V4.6875Z" fill="white"/>
<path d="M12.1094 22.6562C12.1094 22.8635 12.1917 23.0622 12.3382 23.2087C12.4847 23.3552 12.6834 23.4375 12.8906 23.4375C13.0978 23.4375 13.2965 23.3552 13.4431 23.2087C13.5896 23.0622 13.6719 22.8635 13.6719 22.6562C13.6719 22.449 13.5896 22.2503 13.4431 22.1038C13.2965 21.9573 13.0978 21.875 12.8906 21.875C12.6834 21.875 12.4847 21.9573 12.3382 22.1038C12.1917 22.2503 12.1094 22.449 12.1094 22.6562Z" fill="white"/>
<path d="M10.9375 3.125H14.0625C14.1661 3.125 14.2655 3.08384 14.3387 3.01059C14.412 2.93733 14.4531 2.83798 14.4531 2.73438C14.4531 2.63077 14.412 2.53142 14.3387 2.45816C14.2655 2.38491 14.1661 2.34375 14.0625 2.34375H10.9375C10.8339 2.34375 10.7345 2.38491 10.6613 2.45816C10.588 2.53142 10.5469 2.63077 10.5469 2.73438C10.5469 2.83798 10.588 2.93733 10.6613 3.01059C10.7345 3.08384 10.8339 3.125 10.9375 3.125Z" fill="white"/>
</svg>
